<mxfile host="app.diagrams.net" modified="2023-11-27T23:54:33.946Z" agent="Mozilla/5.0 (Windows NT 10.0; Win64; x64) AppleWebKit/537.36 (KHTML, like Gecko) Chrome/119.0.0.0 Safari/537.36" version="22.1.4" etag="-p0i390MYIetflau1OUp" type="github">
  <diagram name="Page-1" id="q_WEoiL0naOX0lVXU06q">
    <mxGraphModel>
      <root>
        <mxCell id="0" />
        <mxCell id="1" parent="0" />
      </root>
    </mxGraphModel>
  </diagram>
</mxfile>
